<svg width="73" height="72" viewBox="0 0 73 72" fill="none" xmlns="http://www.w3.org/2000/svg">
<mask id="mask0_12_147" style="mask-type:luminance" maskUnits="userSpaceOnUse" x="0" y="0" width="73" height="73">
<path d="M0.49353 0.000488281H72.4935V72.0005H0.49353V0.000488281Z" fill="white"/>
</mask>
<g mask="url(#mask0_12_147)">
<path d="M1.54834 64.1255V69.5396C1.54834 70.3162 2.17792 70.9458 2.95459 70.9458H33.8046C34.421 70.1343 35.3959 69.6099 36.4937 69.6099C37.5914 69.6099 38.5663 70.1343 39.1827 70.9458H70.0327C70.8094 70.9458 71.439 70.3162 71.439 69.5396V25.4523C71.439 24.6758 70.8094 24.0461 70.0327 24.0461H67.6157" fill="#FEA439"/>
<path d="M1.54834 64.1255V69.5396C1.54834 70.3162 2.17792 70.9458 2.95459 70.9458H33.8046C34.421 70.1343 35.3959 69.6099 36.4937 69.6099C37.5914 69.6099 38.5663 70.1343 39.1827 70.9458H70.0327C70.8094 70.9458 71.439 70.3162 71.439 69.5396V25.4523C71.439 24.6758 70.8094 24.0461 70.0327 24.0461H67.6157" stroke="black" stroke-width="1.2" stroke-miterlimit="10" stroke-linecap="round" stroke-linejoin="round"/>
<path d="M6.13934 24.0459H2.95447C2.1778 24.0459 1.54822 24.6756 1.54822 25.4521V57.7036" fill="#FEA439"/>
<path d="M6.13934 24.0459H2.95447C2.1778 24.0459 1.54822 24.6756 1.54822 25.4521V57.7036" stroke="black" stroke-width="1.2" stroke-miterlimit="10" stroke-linecap="round" stroke-linejoin="round"/>
<path d="M66.848 30.6565V66.5747H6.13965V30.6565" fill="#FEA439"/>
<path d="M66.848 30.6565V66.5747H6.13965V30.6565" stroke="black" stroke-width="1.2" stroke-miterlimit="10" stroke-linecap="round" stroke-linejoin="round"/>
<path d="M36.4938 66.1177C36.4938 66.1177 25.0537 56.6512 6.13965 63.3052V22.7392C6.13965 22.7392 8.87284 21.4543 13.1708 20.5164" fill="#FEA439"/>
<path d="M36.4938 66.1177C36.4938 66.1177 25.0537 56.6512 6.13965 63.3052V22.7392C6.13965 22.7392 8.87284 21.4543 13.1708 20.5164" stroke="black" stroke-width="1.2" stroke-miterlimit="10" stroke-linecap="round" stroke-linejoin="round"/>
<path d="M20.2019 7.48C18.0907 6.49886 15.7512 5.69012 13.1705 5.14942V47.8364C29.9051 51.3425 36.4934 66.1177 36.4934 66.1177" fill="#FEA439"/>
<path d="M20.2019 7.48C18.0907 6.49886 15.7512 5.69012 13.1705 5.14942V47.8364C29.9051 51.3425 36.4934 66.1177 36.4934 66.1177" stroke="black" stroke-width="1.2" stroke-miterlimit="10" stroke-linecap="round" stroke-linejoin="round"/>
<path d="M36.4945 23.4307C36.4945 23.4307 36.9364 4.56105 20.2017 1.05499V43.7421C36.9364 47.2481 36.4945 66.1177 36.4945 66.1177V23.4307Z" fill="#FEA439" stroke="black" stroke-width="1.2" stroke-miterlimit="10" stroke-linecap="round" stroke-linejoin="round"/>
<path d="M36.4935 66.1177C36.4935 66.1177 47.9337 56.6512 66.8477 63.3052V22.7392C66.8477 22.7392 65.2717 21.9984 62.6314 21.231" fill="#FEA439"/>
<path d="M36.4935 66.1177C36.4935 66.1177 47.9337 56.6512 66.8477 63.3052V22.7392C66.8477 22.7392 65.2717 21.9984 62.6314 21.231" stroke="black" stroke-width="1.2" stroke-miterlimit="10" stroke-linecap="round" stroke-linejoin="round"/>
<path d="M62.6314 31.9222V56.2739C45.6822 56.2739 36.4958 66.1177 36.4958 66.1177V23.4307C36.4958 23.4307 45.6822 13.5869 62.6314 13.5869V25.4534" fill="#FEA439"/>
<path d="M62.6314 31.9222V56.2739C45.6822 56.2739 36.4958 66.1177 36.4958 66.1177V23.4307C36.4958 23.4307 45.6822 13.5869 62.6314 13.5869V25.4534" stroke="black" stroke-width="1.2" stroke-miterlimit="10" stroke-linecap="round" stroke-linejoin="round"/>
</g>
</svg>
